solid hotshoe a
facet normal 0.0 0.0 -1.0
  outer loop
    vertex 18.00000000000001 0.0 0.0
    vertex 9.86988268891764e-15 -17.999999999999996 0.0
    vertex 9.86988268891764e-15 0.0 0.0
  endloop
endfacet
facet normal 0.0 0.0 -1.0
  outer loop
    vertex 9.86988268891764e-15 -17.999999999999996 0.0
    vertex 18.00000000000001 0.0 0.0
    vertex 18.00000000000001 -17.999999999999996 0.0
  endloop
endfacet
facet normal -0.0 -0.0 1.0
  outer loop
    vertex 18.00000000000001 -3.0 1.7999999999999998
    vertex 9.86988268891764e-15 0.0 1.7999999999999998
    vertex 9.86988268891764e-15 -3.0 1.7999999999999998
  endloop
endfacet
facet normal -0.0 -0.0 1.0
  outer loop
    vertex 9.86988268891764e-15 0.0 1.7999999999999998
    vertex 18.00000000000001 -3.0 1.7999999999999998
    vertex 18.00000000000001 0.0 1.7999999999999998
  endloop
endfacet
facet normal 0.0 -1.0 0.0
  outer loop
    vertex 18.00000000000001 -17.999999999999996 1.7999999999999998
    vertex 9.86988268891764e-15 -17.999999999999996 0.0
    vertex 18.00000000000001 -17.999999999999996 0.0
  endloop
endfacet
facet normal 0.0 -1.0 0.0
  outer loop
    vertex 9.86988268891764e-15 -17.999999999999996 0.0
    vertex 18.00000000000001 -17.999999999999996 1.7999999999999998
    vertex 9.86988268891764e-15 -17.999999999999996 1.7999999999999998
  endloop
endfacet
facet normal -1.0 0.0 0.0
  outer loop
    vertex 9.86988268891764e-15 -3.0 7.999999999999999
    vertex 9.86988268891764e-15 -14.999999999999998 1.7999999999999998
    vertex 9.86988268891764e-15 -14.999999999999998 7.999999999999999
  endloop
endfacet
facet normal -1.0 0.0 0.0
  outer loop
    vertex 9.86988268891764e-15 -14.999999999999998 1.7999999999999998
    vertex 9.86988268891764e-15 -17.999999999999996 0.0
    vertex 9.86988268891764e-15 -17.999999999999996 1.7999999999999998
  endloop
endfacet
facet normal -1.0 0.0 0.0
  outer loop
    vertex 9.86988268891764e-15 -17.999999999999996 0.0
    vertex 9.86988268891764e-15 -14.999999999999998 1.7999999999999998
    vertex 9.86988268891764e-15 0.0 0.0
  endloop
endfacet
facet normal -1.0 0.0 0.0
  outer loop
    vertex 9.86988268891764e-15 0.0 0.0
    vertex 9.86988268891764e-15 -14.999999999999998 1.7999999999999998
    vertex 9.86988268891764e-15 -3.0 1.7999999999999998
  endloop
endfacet
facet normal -1.0 0.0 0.0
  outer loop
    vertex 9.86988268891764e-15 -3.0 1.7999999999999998
    vertex 9.86988268891764e-15 -14.999999999999998 1.7999999999999998
    vertex 9.86988268891764e-15 -3.0 7.999999999999999
  endloop
endfacet
facet normal -1.0 0.0 0.0
  outer loop
    vertex 9.86988268891764e-15 0.0 0.0
    vertex 9.86988268891764e-15 -3.0 1.7999999999999998
    vertex 9.86988268891764e-15 0.0 1.7999999999999998
  endloop
endfacet
facet normal -0.0 1.0 -0.0
  outer loop
    vertex 9.86988268891764e-15 0.0 1.7999999999999998
    vertex 18.00000000000001 0.0 0.0
    vertex 9.86988268891764e-15 0.0 0.0
  endloop
endfacet
facet normal -0.0 1.0 -0.0
  outer loop
    vertex 18.00000000000001 0.0 0.0
    vertex 9.86988268891764e-15 0.0 1.7999999999999998
    vertex 18.00000000000001 0.0 1.7999999999999998
  endloop
endfacet
facet normal -0.0 -0.0 1.0
  outer loop
    vertex 18.00000000000001 -17.999999999999996 1.7999999999999998
    vertex 9.86988268891764e-15 -14.999999999999998 1.7999999999999998
    vertex 9.86988268891764e-15 -17.999999999999996 1.7999999999999998
  endloop
endfacet
facet normal -0.0 -0.0 1.0
  outer loop
    vertex 9.86988268891764e-15 -14.999999999999998 1.7999999999999998
    vertex 18.00000000000001 -17.999999999999996 1.7999999999999998
    vertex 18.00000000000001 -14.999999999999998 1.7999999999999998
  endloop
endfacet
facet normal 1.0 -0.0 -0.0
  outer loop
    vertex 18.00000000000001 -3.0 3.6999999999999997
    vertex 18.00000000000001 -14.999999999999998 3.6999999999999997
    vertex 18.00000000000001 -3.0 1.7999999999999998
  endloop
endfacet
facet normal 1.0 -0.0 -0.0
  outer loop
    vertex 18.00000000000001 0.0 0.0
    vertex 18.00000000000001 -17.999999999999996 1.7999999999999998
    vertex 18.00000000000001 -17.999999999999996 0.0
  endloop
endfacet
facet normal 1.0 -0.0 -0.0
  outer loop
    vertex 18.00000000000001 -17.999999999999996 1.7999999999999998
    vertex 18.00000000000001 0.0 0.0
    vertex 18.00000000000001 -14.999999999999998 1.7999999999999998
  endloop
endfacet
facet normal 1.0 -0.0 -0.0
  outer loop
    vertex 18.00000000000001 -14.999999999999998 1.7999999999999998
    vertex 18.00000000000001 0.0 0.0
    vertex 18.00000000000001 -14.999999999999998 3.6999999999999997
  endloop
endfacet
facet normal 1.0 -0.0 -0.0
  outer loop
    vertex 18.00000000000001 -14.999999999999998 3.6999999999999997
    vertex 18.00000000000001 0.0 0.0
    vertex 18.00000000000001 -3.0 1.7999999999999998
  endloop
endfacet
facet normal 1.0 -0.0 -0.0
  outer loop
    vertex 18.00000000000001 -3.0 1.7999999999999998
    vertex 18.00000000000001 0.0 0.0
    vertex 18.00000000000001 0.0 1.7999999999999998
  endloop
endfacet
facet normal -0.0 1.0 -0.0
  outer loop
    vertex 9.86988268891764e-15 -3.0 7.999999999999999
    vertex 18.00000000000001 -3.0 1.7999999999999998
    vertex 9.86988268891764e-15 -3.0 1.7999999999999998
  endloop
endfacet
facet normal -0.0 1.0 -0.0
  outer loop
    vertex 18.00000000000001 -3.0 1.7999999999999998
    vertex 9.86988268891764e-15 -3.0 7.999999999999999
    vertex 18.00000000000001 -3.0 3.6999999999999997
  endloop
endfacet
facet normal -0.0 1.0 -0.0
  outer loop
    vertex 18.00000000000001 -3.0 3.6999999999999997
    vertex 9.86988268891764e-15 -3.0 7.999999999999999
    vertex 60.000000000000014 -3.0 3.6999999999999997
  endloop
endfacet
facet normal -0.0 1.0 -0.0
  outer loop
    vertex 60.000000000000014 -3.0 3.6999999999999997
    vertex 9.86988268891764e-15 -3.0 7.999999999999999
    vertex 60.000000000000014 -3.0 7.999999999999999
  endloop
endfacet
facet normal -0.0 -0.0 1.0
  outer loop
    vertex 60.000000000000014 -14.999999999999998 7.999999999999999
    vertex 9.86988268891764e-15 -3.0 7.999999999999999
    vertex 9.86988268891764e-15 -14.999999999999998 7.999999999999999
  endloop
endfacet
facet normal -0.0 -0.0 1.0
  outer loop
    vertex 9.86988268891764e-15 -3.0 7.999999999999999
    vertex 60.000000000000014 -14.999999999999998 7.999999999999999
    vertex 60.000000000000014 -3.0 7.999999999999999
  endloop
endfacet
facet normal 0.0 -1.0 0.0
  outer loop
    vertex 60.000000000000014 -14.999999999999998 7.999999999999999
    vertex 18.00000000000001 -14.999999999999998 3.6999999999999997
    vertex 60.000000000000014 -14.999999999999998 3.6999999999999997
  endloop
endfacet
facet normal 0.0 -1.0 0.0
  outer loop
    vertex 18.00000000000001 -14.999999999999998 3.6999999999999997
    vertex 9.86988268891764e-15 -14.999999999999998 1.7999999999999998
    vertex 18.00000000000001 -14.999999999999998 1.7999999999999998
  endloop
endfacet
facet normal 0.0 -1.0 0.0
  outer loop
    vertex 9.86988268891764e-15 -14.999999999999998 1.7999999999999998
    vertex 18.00000000000001 -14.999999999999998 3.6999999999999997
    vertex 9.86988268891764e-15 -14.999999999999998 7.999999999999999
  endloop
endfacet
facet normal 0.0 -1.0 0.0
  outer loop
    vertex 9.86988268891764e-15 -14.999999999999998 7.999999999999999
    vertex 18.00000000000001 -14.999999999999998 3.6999999999999997
    vertex 60.000000000000014 -14.999999999999998 7.999999999999999
  endloop
endfacet
facet normal 0.0 0.0 -1.0
  outer loop
    vertex 60.000000000000014 -3.0 3.6999999999999997
    vertex 18.00000000000001 -14.999999999999998 3.6999999999999997
    vertex 18.00000000000001 -3.0 3.6999999999999997
  endloop
endfacet
facet normal 0.0 0.0 -1.0
  outer loop
    vertex 18.00000000000001 -14.999999999999998 3.6999999999999997
    vertex 60.000000000000014 -3.0 3.6999999999999997
    vertex 60.000000000000014 -14.999999999999998 3.6999999999999997
  endloop
endfacet
facet normal -1.0 0.0 0.0
  outer loop
    vertex 60.000000000000014 -3.0 7.999999999999999
    vertex 60.000000000000014 -14.999999999999998 3.6999999999999997
    vertex 60.000000000000014 -14.999999999999998 7.999999999999999
  endloop
endfacet
facet normal -1.0 0.0 0.0
  outer loop
    vertex 60.000000000000014 -14.999999999999998 3.6999999999999997
    vertex 60.000000000000014 -3.0 7.999999999999999
    vertex 60.000000000000014 -3.0 3.6999999999999997
  endloop
endfacet
endsolid hotshoe a
