solid OpenSCAD_Model
  facet normal 1 -0 0
    outer loop
      vertex 28 -9 18
      vertex 28 9 0
      vertex 28 9 18
    endloop
  endfacet
  facet normal 1 0 0
    outer loop
      vertex 28 9 0
      vertex 28 -9 18
      vertex 28 -9 0
    endloop
  endfacet
  facet normal -0 0 1
    outer loop
      vertex 20 6 18
      vertex 26 -6 18
      vertex 26 6 18
    endloop
  endfacet
  facet normal 0 0 1
    outer loop
      vertex 26 -6 18
      vertex 20 6 18
      vertex 20 -6 18
    endloop
  endfacet
  facet normal 0 0 1
    outer loop
      vertex 26 6 18
      vertex 28 9 18
      vertex 26 9 18
    endloop
  endfacet
  facet normal 0 0 1
    outer loop
      vertex 28 9 18
      vertex 26 6 18
      vertex 28 -9 18
    endloop
  endfacet
  facet normal -0 0 1
    outer loop
      vertex 26 -6 18
      vertex 28 -9 18
      vertex 26 6 18
    endloop
  endfacet
  facet normal 0 0 1
    outer loop
      vertex 28 -9 18
      vertex 26 -6 18
      vertex 26 -9 18
    endloop
  endfacet
  facet normal -1 0 0
    outer loop
      vertex 20 -6 0
      vertex 20 6 18
      vertex 20 6 0
    endloop
  endfacet
  facet normal -1 -0 0
    outer loop
      vertex 20 6 18
      vertex 20 -6 0
      vertex 20 -6 18
    endloop
  endfacet
  facet normal 0 -1 0
    outer loop
      vertex 26 -9 0
      vertex 28 -9 18
      vertex 26 -9 18
    endloop
  endfacet
  facet normal 0 -1 -0
    outer loop
      vertex 28 -9 18
      vertex 26 -9 0
      vertex 28 -9 0
    endloop
  endfacet
  facet normal 0 0 -1
    outer loop
      vertex 20 -6 0
      vertex 26 6 0
      vertex 26 -6 0
    endloop
  endfacet
  facet normal -0 0 -1
    outer loop
      vertex 26 6 0
      vertex 20 -6 0
      vertex 20 6 0
    endloop
  endfacet
  facet normal 0 0 -1
    outer loop
      vertex 26 -6 0
      vertex 28 -9 0
      vertex 26 -9 0
    endloop
  endfacet
  facet normal 0 0 -1
    outer loop
      vertex 28 -9 0
      vertex 26 -6 0
      vertex 28 9 0
    endloop
  endfacet
  facet normal 0 0 -1
    outer loop
      vertex 26 6 0
      vertex 28 9 0
      vertex 26 -6 0
    endloop
  endfacet
  facet normal -0 0 -1
    outer loop
      vertex 28 9 0
      vertex 26 6 0
      vertex 26 9 0
    endloop
  endfacet
  facet normal 0 1 -0
    outer loop
      vertex 28 9 0
      vertex 26 9 18
      vertex 28 9 18
    endloop
  endfacet
  facet normal 0 1 0
    outer loop
      vertex 26 9 18
      vertex 28 9 0
      vertex 26 9 0
    endloop
  endfacet
  facet normal -1 0 0
    outer loop
      vertex 26 -9 0
      vertex 26 -6 18
      vertex 26 -6 0
    endloop
  endfacet
  facet normal -1 -0 0
    outer loop
      vertex 26 -6 18
      vertex 26 -9 0
      vertex 26 -9 18
    endloop
  endfacet
  facet normal 0 -1 0
    outer loop
      vertex 20 -6 0
      vertex 26 -6 18
      vertex 20 -6 18
    endloop
  endfacet
  facet normal 0 -1 -0
    outer loop
      vertex 26 -6 18
      vertex 20 -6 0
      vertex 26 -6 0
    endloop
  endfacet
  facet normal -1 0 0
    outer loop
      vertex 26 6 0
      vertex 26 9 18
      vertex 26 9 0
    endloop
  endfacet
  facet normal -1 -0 0
    outer loop
      vertex 26 9 18
      vertex 26 6 0
      vertex 26 6 18
    endloop
  endfacet
  facet normal 0 1 -0
    outer loop
      vertex 26 6 0
      vertex 20 6 18
      vertex 26 6 18
    endloop
  endfacet
  facet normal 0 1 0
    outer loop
      vertex 20 6 18
      vertex 26 6 0
      vertex 20 6 0
    endloop
  endfacet
endsolid OpenSCAD_Model
